<svg width="170" height="33" viewBox="0 0 170 33" fill="none" xmlns="http://www.w3.org/2000/svg">
<path d="M83.1032 25.2914H78.4137V3.3804H83.1032L89.6746 19.7248L96.2758 3.3804H101.025V25.2914H96.3356V20.7019C96.3356 15.9644 96.3356 14.9281 96.5745 13.2996L91.8849 25.2914H87.4642L82.8045 13.2996C83.0734 14.9281 83.1032 16.7639 83.1032 19.1622V25.2914Z" fill="#FF0311"/>
<path d="M103.867 32.3976V28.578H106.406C107.959 28.578 108.616 28.1043 109.213 26.5054L109.482 25.7947L103.478 10.4867H108.407L111.663 19.9913L115.277 10.4867H120.056L112.469 28.5188C111.215 31.539 109.542 32.8122 106.913 32.8122C105.808 32.8122 104.763 32.6641 103.867 32.3976Z" fill="#FF0311"/>
<path d="M127.985 25.2914H123.385V14.2767H120.547V10.4867H123.385V5.8972H127.985V10.4867H130.822V14.2767H127.985V25.2914Z" fill="#FF0311"/>
<path d="M143.165 10.4867V13.571L141.701 14.78C139.073 14.78 137.489 15.9348 137.489 18.8661V25.2914H132.889V10.5163H137.221L137.46 12.7074C138.087 11.2565 139.401 10.2794 141.402 10.2794C141.94 10.2794 142.537 10.3386 143.165 10.4867Z" fill="#FF0311"/>
<path d="M22.2881 17.8594C22.2881 13.1811 25.753 10.0425 30.5321 10.0425C35.2814 10.0425 38.7463 13.1811 38.7463 17.8594C38.7463 22.5377 35.2814 25.6467 30.5321 25.6467C25.753 25.6467 22.2881 22.5377 22.2881 17.8594ZM26.9179 17.8298C26.9179 20.0801 28.3815 21.5606 30.5321 21.5606C32.6529 21.5606 34.1165 20.0801 34.1165 17.8298C34.1165 15.6091 32.6529 14.1286 30.5321 14.1286C28.3815 14.1286 26.9179 15.6091 26.9179 17.8298Z" fill="white"/>
<path d="M40.6067 17.8594C40.6067 13.1811 44.0716 10.0425 48.8507 10.0425C53.6 10.0425 57.0649 13.1811 57.0649 17.8594C57.0649 22.5377 53.6 25.6467 48.8507 25.6467C44.0716 25.6467 40.6067 22.5377 40.6067 17.8594ZM45.2365 17.8298C45.2365 20.0801 46.7001 21.5606 48.8507 21.5606C50.9715 21.5606 52.4351 20.0801 52.4351 17.8298C52.4351 15.6091 50.9715 14.1286 48.8507 14.1286C46.7001 14.1286 45.2365 15.6091 45.2365 17.8298Z" fill="white"/>
<path d="M64.3317 25.2914H59.7317V10.4867H64.0629L64.3616 12.0264C65.2875 10.7531 66.9901 10.0129 68.9317 10.0129C72.4862 10.0129 74.5472 12.2632 74.5472 16.1421V25.2914H69.9472V17.2376C69.9472 15.3722 68.9018 14.1582 67.3187 14.1582C65.4966 14.1582 64.3317 15.3426 64.3317 17.1784V25.2914Z" fill="white"/>
<path d="M4.95959 25.2914H0.18042V3.3804H4.95959L14.279 17.3264V3.3804H19.0582V25.2914H14.279L4.95959 11.3749V25.2914Z" fill="white"/>
<path d="M153.542 32.3976V11.7204L155.707 10.4867H157.873L158.112 12.2928C158.948 10.9308 160.83 10.0129 162.951 10.0129C167.103 10.0129 170 12.885 170 17.6521C170 22.3304 167.431 25.7059 162.981 25.7059C160.92 25.7059 159.008 24.9361 158.142 23.8109V32.3976H153.542ZM158.171 17.889C158.171 20.1097 159.665 21.5902 161.816 21.5902C163.996 21.5902 165.37 20.0801 165.37 17.889C165.37 15.6979 163.996 14.1878 161.816 14.1878C159.665 14.1878 158.171 15.6683 158.171 17.889Z" fill="#FF0311"/>
<path d="M156.378 8.37635L140.73 15.822L148.728 9.72556L149.272 8.8011L156.378 8.37635Z" fill="white"/>
<path d="M160.653 5.96882H161.542C160.043 6.66721 156.126 8.48303 152.45 10.1592C148.773 11.8353 139.141 4.08478 134.784 0C138.717 2.5337 145.581 4.72633 148.521 5.50593C150.564 6.0013 155.128 6.7874 157.045 5.96882C158.963 5.15024 160.249 5.62774 160.653 5.96882Z" fill="white"/>
<path d="M145.491 25.2914V15.1131L150.091 12.9541V25.2914H145.491Z" fill="#FF0311"/>
</svg>
