<svg width="27" height="27" viewBox="0 0 27 27" fill="none" xmlns="http://www.w3.org/2000/svg">
<path fill-rule="evenodd" clip-rule="evenodd" d="M13.5163 0.167725C16.3482 0.167712 18.5725 0.167699 20.3091 0.40117C22.0886 0.640433 23.5006 1.14074 24.61 2.25012C25.7194 3.3595 26.2196 4.77145 26.4589 6.55102C26.6924 8.28763 26.6924 10.5119 26.6924 13.3438V13.4917C26.6924 16.3235 26.6924 18.5479 26.4589 20.2845C26.2196 22.064 25.7194 23.476 24.61 24.5853C23.5006 25.6947 22.0886 26.195 20.3091 26.4343C18.5725 26.6677 16.3482 26.6677 13.5163 26.6677H13.3684C10.5366 26.6677 8.31229 26.6677 6.57568 26.4343C4.79611 26.195 3.38416 25.6947 2.27478 24.5853C1.16541 23.476 0.665091 22.064 0.425829 20.2845C0.192357 18.5479 0.19237 16.3235 0.192383 13.4917V13.3438C0.19237 10.5119 0.192357 8.28763 0.425829 6.55102C0.665091 4.77145 1.16541 3.3595 2.27478 2.25012C3.38416 1.14074 4.79611 0.640433 6.57568 0.40117C8.31228 0.167699 10.5366 0.167712 13.3684 0.167725H13.5163ZM19.2595 13.4177C19.2595 16.6304 16.6551 19.2348 13.4424 19.2348C10.2297 19.2348 7.62531 16.6304 7.62531 13.4177C7.62531 10.205 10.2297 7.60065 13.4424 7.60065C16.6551 7.60065 19.2595 10.205 19.2595 13.4177ZM20.568 7.60065C21.2788 7.60065 21.8549 7.0219 21.8549 6.30797C21.8549 5.59405 21.2788 5.01529 20.568 5.01529H20.5564C19.8457 5.01529 19.2695 5.59405 19.2695 6.30797C19.2695 7.02189 19.8457 7.60065 20.5564 7.60065H20.568Z" fill="black"/>
</svg>
