<svg width="28" height="27" viewBox="0 0 28 27" fill="none" xmlns="http://www.w3.org/2000/svg">
<path d="M25.2994 0.166504H2.57706C1.53589 0.166504 0.689941 1.02429 0.689941 2.07729V24.7582C0.689941 25.8112 1.53589 26.669 2.57706 26.669H25.2994C26.3406 26.669 27.1924 25.8112 27.1924 24.7582V2.07729C27.1924 1.02429 26.3406 0.166504 25.2994 0.166504ZM8.69985 22.8829H4.7718V10.2351H8.70577V22.8829H8.69985ZM6.73583 8.5077C5.47577 8.5077 4.45827 7.48427 4.45827 6.23014C4.45827 4.976 5.47577 3.95258 6.73583 3.95258C7.98996 3.95258 9.01338 4.976 9.01338 6.23014C9.01338 7.49019 7.99588 8.5077 6.73583 8.5077ZM23.4241 22.8829H19.4961V16.7306C19.4961 15.2635 19.4665 13.3763 17.4551 13.3763C15.4083 13.3763 15.0948 14.9736 15.0948 16.6241V22.8829H11.1667V10.2351H14.935V11.9625H14.9883C15.5148 10.9686 16.7985 9.92156 18.7093 9.92156C22.6847 9.92156 23.4241 12.5422 23.4241 15.9497V22.8829Z" fill="black"/>
</svg>
