<svg width="33" height="23" viewBox="0 0 33 23" fill="none" xmlns="http://www.w3.org/2000/svg">
<path d="M32.3251 3.61392C31.9536 2.21485 30.8588 1.11299 29.4688 0.739052C26.9493 0.0595703 16.8463 0.0595703 16.8463 0.0595703C16.8463 0.0595703 6.74341 0.0595703 4.22384 0.739052C2.83382 1.11304 1.73905 2.21485 1.36749 3.61392C0.692383 6.14982 0.692383 11.4407 0.692383 11.4407C0.692383 11.4407 0.692383 16.7317 1.36749 19.2676C1.73905 20.6666 2.83382 21.7226 4.22384 22.0965C6.74341 22.776 16.8463 22.776 16.8463 22.776C16.8463 22.776 26.9492 22.776 29.4688 22.0965C30.8588 21.7226 31.9536 20.6666 32.3251 19.2676C33.0002 16.7317 33.0002 11.4407 33.0002 11.4407C33.0002 11.4407 33.0002 6.14982 32.3251 3.61392V3.61392ZM13.5421 16.2445V6.63698L21.9861 11.4409L13.5421 16.2445V16.2445Z" fill="black"/>
</svg>
