<svg width="170" height="33" viewBox="0 0 170 33" fill="none" xmlns="http://www.w3.org/2000/svg">
<path d="M82.9228 25.2914H78.2332V3.3804H82.9228L89.4942 19.7248L96.0954 3.3804H100.845V25.2914H96.1551V20.7019C96.1551 15.9644 96.1551 14.9281 96.3941 13.2996L91.7045 25.2914H87.2838L82.6241 13.2996C82.8929 14.9281 82.9228 16.7639 82.9228 19.1622V25.2914Z" fill="#FF0311"/>
<path d="M103.686 32.3976V28.578H106.225C107.778 28.578 108.436 28.1043 109.033 26.5054L109.302 25.7947L103.298 10.4867H108.227L111.482 19.9913L115.097 10.4867H119.876L112.289 28.5188C111.034 31.539 109.362 32.8122 106.733 32.8122C105.628 32.8122 104.582 32.6641 103.686 32.3976Z" fill="#FF0311"/>
<path d="M127.804 25.2914H123.204V14.2767H120.367V10.4867H123.204V5.8972H127.804V10.4867H130.642V14.2767H127.804V25.2914Z" fill="#FF0311"/>
<path d="M142.984 10.4867V13.571L141.521 14.78C138.892 14.78 137.309 15.9348 137.309 18.8661V25.2914H132.709V10.5163H137.04L137.279 12.7074C137.906 11.2565 139.221 10.2794 141.222 10.2794C141.76 10.2794 142.357 10.3386 142.984 10.4867Z" fill="#FF0311"/>
<path d="M22.1076 17.8594C22.1076 13.1811 25.5725 10.0425 30.3517 10.0425C35.101 10.0425 38.5659 13.1811 38.5659 17.8594C38.5659 22.5377 35.101 25.6467 30.3517 25.6467C25.5725 25.6467 22.1076 22.5377 22.1076 17.8594ZM26.7375 17.8298C26.7375 20.0801 28.2011 21.5606 30.3517 21.5606C32.4725 21.5606 33.9361 20.0801 33.9361 17.8298C33.9361 15.6091 32.4725 14.1286 30.3517 14.1286C28.2011 14.1286 26.7375 15.6091 26.7375 17.8298Z" fill="black"/>
<path d="M40.4262 17.8594C40.4262 13.1811 43.8911 10.0425 48.6703 10.0425C53.4196 10.0425 56.8845 13.1811 56.8845 17.8594C56.8845 22.5377 53.4196 25.6467 48.6703 25.6467C43.8911 25.6467 40.4262 22.5377 40.4262 17.8594ZM45.0561 17.8298C45.0561 20.0801 46.5197 21.5606 48.6703 21.5606C50.7911 21.5606 52.2547 20.0801 52.2547 17.8298C52.2547 15.6091 50.7911 14.1286 48.6703 14.1286C46.5197 14.1286 45.0561 15.6091 45.0561 17.8298Z" fill="black"/>
<path d="M64.1513 25.2914H59.5513V10.4867H63.8824L64.1812 12.0264C65.1071 10.7531 66.8097 10.0129 68.7512 10.0129C72.3057 10.0129 74.3668 12.2632 74.3668 16.1421V25.2914H69.7668V17.2376C69.7668 15.3722 68.7214 14.1582 67.1383 14.1582C65.3162 14.1582 64.1513 15.3426 64.1513 17.1784V25.2914Z" fill="black"/>
<path d="M4.77917 25.2914H0V3.3804H4.77917L14.0986 17.3264V3.3804H18.8777V25.2914H14.0986L4.77917 11.3749V25.2914Z" fill="black"/>
<path d="M153.361 32.3976V11.7204L155.527 10.4867H157.692L157.931 12.2928C158.768 10.9308 160.649 10.0129 162.77 10.0129C166.922 10.0129 169.82 12.885 169.82 17.6521C169.82 22.3304 167.251 25.7059 162.8 25.7059C160.739 25.7059 158.827 24.9361 157.961 23.8109V32.3976H153.361ZM157.991 17.889C157.991 20.1097 159.485 21.5902 161.635 21.5902C163.816 21.5902 165.19 20.0801 165.19 17.889C165.19 15.6979 163.816 14.1878 161.635 14.1878C159.485 14.1878 157.991 15.6683 157.991 17.889Z" fill="#FF0311"/>
<path d="M156.198 8.37635L140.55 15.822L148.547 9.72556L149.092 8.8011L156.198 8.37635Z" fill="black"/>
<path d="M160.472 5.96882H161.362C159.863 6.66721 155.946 8.48303 152.269 10.1592C148.593 11.8353 138.96 4.08478 134.603 0C138.537 2.5337 145.401 4.72633 148.341 5.50593C150.383 6.0013 154.948 6.7874 156.865 5.96882C158.782 5.15024 160.069 5.62774 160.472 5.96882Z" fill="black"/>
<path d="M145.31 25.2914V15.1131L149.91 12.9541V25.2914H145.31Z" fill="#FF0311"/>
</svg>
